<svg id="visual" viewBox="0 0 900 300" width="900" height="300" xmlns="http://www.w3.org/2000/svg" xmlns:xlink="http://www.w3.org/1999/xlink" version="1.1"><rect x="0" y="0" width="900" height="300" fill="#202731"></rect><path d="M0 91L21.5 93.7C43 96.3 86 101.7 128.8 106.8C171.7 112 214.3 117 257.2 117.7C300 118.3 343 114.7 385.8 106.8C428.7 99 471.3 87 514.2 87C557 87 600 99 642.8 107C685.7 115 728.3 119 771.2 117.8C814 116.7 857 110.3 878.5 107.2L900 104L900 0L878.5 0C857 0 814 0 771.2 0C728.3 0 685.7 0 642.8 0C600 0 557 0 514.2 0C471.3 0 428.7 0 385.8 0C343 0 300 0 257.2 0C214.3 0 171.7 0 128.8 0C86 0 43 0 21.5 0L0 0Z" fill="#fa7268"></path><path d="M0 61L21.5 65.8C43 70.7 86 80.3 128.8 80C171.7 79.7 214.3 69.3 257.2 67.8C300 66.3 343 73.7 385.8 78.3C428.7 83 471.3 85 514.2 81.5C557 78 600 69 642.8 66.5C685.7 64 728.3 68 771.2 69.7C814 71.3 857 70.7 878.5 70.3L900 70L900 0L878.5 0C857 0 814 0 771.2 0C728.3 0 685.7 0 642.8 0C600 0 557 0 514.2 0C471.3 0 428.7 0 385.8 0C343 0 300 0 257.2 0C214.3 0 171.7 0 128.8 0C86 0 43 0 21.5 0L0 0Z" fill="#ef5f67"></path><path d="M0 76L21.5 75.8C43 75.7 86 75.3 128.8 71.3C171.7 67.3 214.3 59.7 257.2 54.7C300 49.7 343 47.3 385.8 46.8C428.7 46.3 471.3 47.7 514.2 52.3C557 57 600 65 642.8 64.8C685.7 64.7 728.3 56.3 771.2 54.5C814 52.7 857 57.3 878.5 59.7L900 62L900 0L878.5 0C857 0 814 0 771.2 0C728.3 0 685.7 0 642.8 0C600 0 557 0 514.2 0C471.3 0 428.7 0 385.8 0C343 0 300 0 257.2 0C214.3 0 171.7 0 128.8 0C86 0 43 0 21.5 0L0 0Z" fill="#e34c67"></path><path d="M0 36L21.5 39C43 42 86 48 128.8 46.7C171.7 45.3 214.3 36.7 257.2 35.7C300 34.7 343 41.3 385.8 43C428.7 44.7 471.3 41.3 514.2 42.7C557 44 600 50 642.8 51.8C685.7 53.7 728.3 51.3 771.2 48.5C814 45.7 857 42.3 878.5 40.7L900 39L900 0L878.5 0C857 0 814 0 771.2 0C728.3 0 685.7 0 642.8 0C600 0 557 0 514.2 0C471.3 0 428.7 0 385.8 0C343 0 300 0 257.2 0C214.3 0 171.7 0 128.8 0C86 0 43 0 21.5 0L0 0Z" fill="#d53867"></path><path d="M0 25L21.5 24.2C43 23.3 86 21.7 128.8 21.5C171.7 21.3 214.3 22.7 257.2 24.3C300 26 343 28 385.8 27.7C428.7 27.3 471.3 24.7 514.2 25.3C557 26 600 30 642.8 29C685.7 28 728.3 22 771.2 19.2C814 16.3 857 16.7 878.5 16.8L900 17L900 0L878.5 0C857 0 814 0 771.2 0C728.3 0 685.7 0 642.8 0C600 0 557 0 514.2 0C471.3 0 428.7 0 385.8 0C343 0 300 0 257.2 0C214.3 0 171.7 0 128.8 0C86 0 43 0 21.5 0L0 0Z" fill="#c62368"></path></svg>